<svg fill="none" height="120" viewBox="0 0 375 120" width="375" xmlns="http://www.w3.org/2000/svg"><g fill="#fff"><circle cx="45.6297" cy="60.5186" r="6.62966"/><circle cx="65.5186" cy="60.5186" r="6.62966"/><circle cx="45.6297" cy="80.4077" opacity=".2" r="6.62966"/><circle cx="85.4077" cy="80.4077" opacity=".2" r="6.62966"/><circle cx="65.5186" cy="80.4077" r="6.62966"/><circle cx="85.4077" cy="60.5186" r="6.62966"/><circle cx="45.6297" cy="40.6297" opacity=".2" r="6.62966"/><circle cx="65.5186" cy="40.6297" opacity=".2" r="6.62966"/><circle cx="85.4077" cy="40.6297" opacity=".2" r="6.62966"/><path d="m132.184 82.9951c1.877 0 3.402-.176 5.22-.5279v-6.8034c-1.115.4105-2.346.5278-3.519.5278-2.874 0-3.93-1.4076-3.93-4.1055v-13.8416h7.449v-6.8034h-7.449v-10.0879h-8.211v10.0879h-5.337v6.8034h5.337v14.604c0 6.4516 3.402 10.1466 10.44 10.1466z"/><path d="m150.814 82.9951c4.398 0 7.331-1.4663 8.797-3.7537.117.9971.469 2.3461.939 3.1672h7.39c-.411-1.4076-.704-3.6364-.704-5.1026v-16.0703c0-6.6275-4.751-10.3811-12.786-10.3811-6.1 0-10.85 2.2873-13.49 5.6304l4.692 4.6334c2.112-2.346 4.81-3.5777 8.094-3.5777 3.988 0 5.748 1.349 5.748 3.3431 0 1.7009-1.173 2.8739-7.507 2.8739-6.1 0-12.258 2.522-12.258 9.56 0 6.5103 4.692 9.6774 11.085 9.6774zm1.642-6.217c-3.167 0-4.634-1.3489-4.634-3.7536 0-2.1114 1.76-3.5191 4.692-3.5191 4.693 0 5.983-.2932 6.98-1.2903v2.522c0 3.3431-2.815 6.041-7.038 6.041z"/><path d="m172.573 47.5115h8.563v-7.6833h-8.563zm.176 34.8971h8.211v-30.9675h-8.211z"/><path d="m186.942 82.4086h8.211v-41.6419h-8.211z"/><path d="m212.22 82.9951c9.033 0 13.666-4.7507 13.666-9.736 0-4.5161-2.287-7.8592-9.795-9.2082-5.278-.9384-8.563-2.1114-8.563-3.9295 0-1.5836 1.877-2.698 5.044-2.698 2.815 0 5.161.9384 6.921 2.9912l5.22-4.3988c-2.639-3.2844-6.98-5.1612-12.141-5.1612-7.918 0-12.844 4.2228-12.844 9.3841 0 5.6304 5.161 8.1524 10.733 9.1494 4.633.8212 7.214 1.7009 7.214 3.695 0 1.7009-1.818 3.1085-5.279 3.1085-3.401 0-6.041-1.5836-7.272-3.9296l-6.921 3.2845c1.701 4.2228 7.507 7.4486 14.017 7.4486z"/><path d="m244.243 82.9951c5.865 0 10.088-2.346 13.255-7.6246l-6.569-3.3431c-1.231 2.4633-3.226 4.1642-6.686 4.1642-5.22 0-8.035-4.2228-8.035-9.3254s2.991-9.2082 8.035-9.2082c3.167 0 5.279 1.7009 6.51 4.2815l6.628-3.519c-2.229-4.868-6.628-7.5659-13.138-7.5659-10.733 0-16.246 7.8591-16.246 16.0116 0 8.8562 6.686 16.1289 16.246 16.1289z"/><path d="m270.578 82.9951c4.398 0 7.331-1.4663 8.797-3.7537.118.9971.469 2.3461.939 3.1672h7.39c-.411-1.4076-.704-3.6364-.704-5.1026v-16.0703c0-6.6275-4.751-10.3811-12.786-10.3811-6.1 0-10.85 2.2873-13.49 5.6304l4.692 4.6334c2.112-2.346 4.81-3.5777 8.094-3.5777 3.988 0 5.748 1.349 5.748 3.3431 0 1.7009-1.173 2.8739-7.507 2.8739-6.1 0-12.258 2.522-12.258 9.56 0 6.5103 4.692 9.6774 11.085 9.6774zm1.642-6.217c-3.167 0-4.634-1.3489-4.634-3.7536 0-2.1114 1.76-3.5191 4.693-3.5191 4.692 0 5.982-.2932 6.979-1.2903v2.522c0 3.3431-2.815 6.041-7.038 6.041z"/><path d="m291.826 82.4086h8.211v-41.6419h-8.211z"/><path d="m319.743 82.9951c6.041 0 10.909-2.4047 13.607-6.6862l-6.217-3.9882c-1.642 2.5806-3.812 3.9882-7.39 3.9882-4.047 0-6.979-2.2287-7.742-6.5688h23.343v-2.8739c0-8.1525-4.985-16.0116-15.659-16.0116-10.147 0-15.66 7.9178-15.66 16.0702 0 11.6128 8.739 16.0703 15.718 16.0703zm-7.448-19.7066c1.29-3.9296 3.988-5.7478 7.566-5.7478 4.047 0 6.51 2.4047 7.331 5.7478z"/></g></svg>